<svg xmlns="http://www.w3.org/2000/svg" xmlns:xlink="http://www.w3.org/1999/xlink" width="40" zoomAndPan="magnify" viewBox="0 0 30 37.92" height="40" preserveAspectRatio="xMidYMid meet" version="1.0"><defs><clipPath id="b9240383e1"><path d="M 0.03125 0 L 29.96875 0 L 29.96875 29.9375 L 0.03125 29.9375 Z M 0.03125 0 " clip-rule="nonzero"/></clipPath><clipPath id="24f3b10a41"><path d="M 0.347656 0.316406 L 29.96875 0.316406 L 29.96875 29.9375 L 0.347656 29.9375 Z M 0.347656 0.316406 " clip-rule="nonzero"/></clipPath></defs><g clip-path="url(#b9240383e1)"><path fill="#ffffff" d="M 0.03125 0 L 29.96875 0 L 29.96875 29.9375 L 0.03125 29.9375 Z M 0.03125 0 " fill-opacity="1" fill-rule="nonzero"/><path fill="#ffffff" d="M 0.03125 0 L 29.96875 0 L 29.96875 29.9375 L 0.03125 29.9375 Z M 0.03125 0 " fill-opacity="1" fill-rule="nonzero"/></g><g clip-path="url(#24f3b10a41)"><path fill="#38b6ff" d="M 29.09375 14.503906 L 15.773438 1.179688 C 15.230469 0.648438 14.492188 0.316406 13.675781 0.316406 L 3.308594 0.316406 C 1.671875 0.316406 0.347656 1.640625 0.347656 3.277344 L 0.347656 13.644531 C 0.347656 14.464844 0.679688 15.207031 1.21875 15.742188 L 14.550781 29.070312 C 15.082031 29.601562 15.824219 29.9375 16.636719 29.9375 C 17.453125 29.9375 18.199219 29.601562 18.734375 29.070312 L 29.101562 18.703125 C 29.632812 18.160156 29.96875 17.421875 29.96875 16.605469 C 29.96875 15.785156 29.632812 15.042969 29.09375 14.503906 Z M 5.53125 7.71875 C 4.300781 7.71875 3.308594 6.726562 3.308594 5.5 C 3.308594 4.269531 4.300781 3.277344 5.53125 3.277344 C 6.757812 3.277344 7.753906 4.269531 7.753906 5.5 C 7.753906 6.726562 6.757812 7.71875 5.53125 7.71875 Z M 5.53125 7.71875 " fill-opacity="1" fill-rule="nonzero"/></g></svg>