<svg xmlns="http://www.w3.org/2000/svg" xmlns:xlink="http://www.w3.org/1999/xlink" width="40" zoomAndPan="magnify" viewBox="0 0 30 37.92" height="40" preserveAspectRatio="xMidYMid meet" version="1.0"><defs><clipPath id="a79c75ab5c"><path d="M 0.03125 0 L 29.96875 0 L 29.96875 29.9375 L 0.03125 29.9375 Z M 0.03125 0 " clip-rule="nonzero"/></clipPath><clipPath id="0f3d35aa53"><path d="M 7 0.496094 L 10 0.496094 L 10 7 L 7 7 Z M 7 0.496094 " clip-rule="nonzero"/></clipPath><clipPath id="4a17f55f89"><path d="M 1 4 L 29.347656 4 L 29.347656 29.683594 L 1 29.683594 Z M 1 4 " clip-rule="nonzero"/></clipPath><clipPath id="0af62fc5a0"><path d="M 20 0.496094 L 24 0.496094 L 24 7 L 20 7 Z M 20 0.496094 " clip-rule="nonzero"/></clipPath></defs><g clip-path="url(#a79c75ab5c)"><path fill="#ffffff" d="M 0.03125 0 L 29.96875 0 L 29.96875 29.9375 L 0.03125 29.9375 Z M 0.03125 0 " fill-opacity="1" fill-rule="nonzero"/><path fill="#ffffff" d="M 0.03125 0 L 29.96875 0 L 29.96875 29.9375 L 0.03125 29.9375 Z M 0.03125 0 " fill-opacity="1" fill-rule="nonzero"/></g><path fill="#38b6ff" d="M 9.789062 15.257812 L 7.777344 15.257812 C 7.328125 15.257812 6.96875 15.617188 6.96875 16.066406 L 6.96875 18.078125 C 6.96875 18.523438 7.328125 18.886719 7.777344 18.886719 L 9.789062 18.886719 C 10.234375 18.886719 10.597656 18.523438 10.597656 18.078125 L 10.597656 16.066406 C 10.597656 15.617188 10.234375 15.257812 9.789062 15.257812 Z M 9.789062 15.257812 " fill-opacity="1" fill-rule="nonzero"/><path fill="#38b6ff" d="M 9.789062 21.0625 L 7.777344 21.0625 C 7.328125 21.0625 6.96875 21.425781 6.96875 21.871094 L 6.96875 23.882812 C 6.96875 24.332031 7.328125 24.691406 7.777344 24.691406 L 9.789062 24.691406 C 10.234375 24.691406 10.597656 24.332031 10.597656 23.882812 L 10.597656 21.871094 C 10.597656 21.425781 10.234375 21.0625 9.789062 21.0625 Z M 9.789062 21.0625 " fill-opacity="1" fill-rule="nonzero"/><path fill="#38b6ff" d="M 16.054688 15.257812 L 14.042969 15.257812 C 13.597656 15.257812 13.234375 15.617188 13.234375 16.066406 L 13.234375 18.078125 C 13.234375 18.523438 13.597656 18.886719 14.042969 18.886719 L 16.054688 18.886719 C 16.503906 18.886719 16.867188 18.523438 16.867188 18.078125 L 16.867188 16.066406 C 16.867188 15.617188 16.503906 15.257812 16.054688 15.257812 Z M 16.054688 15.257812 " fill-opacity="1" fill-rule="nonzero"/><path fill="#38b6ff" d="M 16.054688 21.0625 L 14.042969 21.0625 C 13.597656 21.0625 13.234375 21.425781 13.234375 21.871094 L 13.234375 23.882812 C 13.234375 24.332031 13.597656 24.691406 14.042969 24.691406 L 16.054688 24.691406 C 16.503906 24.691406 16.867188 24.332031 16.867188 23.882812 L 16.867188 21.871094 C 16.867188 21.425781 16.503906 21.0625 16.054688 21.0625 Z M 16.054688 21.0625 " fill-opacity="1" fill-rule="nonzero"/><path fill="#38b6ff" d="M 22.324219 15.257812 L 20.3125 15.257812 C 19.867188 15.257812 19.503906 15.617188 19.503906 16.066406 L 19.503906 18.078125 C 19.503906 18.523438 19.867188 18.886719 20.3125 18.886719 L 22.324219 18.886719 C 22.769531 18.886719 23.132812 18.523438 23.132812 18.078125 L 23.132812 16.066406 C 23.132812 15.617188 22.769531 15.257812 22.324219 15.257812 Z M 22.324219 15.257812 " fill-opacity="1" fill-rule="nonzero"/><path fill="#38b6ff" d="M 22.324219 21.0625 L 20.3125 21.0625 C 19.867188 21.0625 19.503906 21.425781 19.503906 21.871094 L 19.503906 23.882812 C 19.503906 24.332031 19.867188 24.691406 20.3125 24.691406 L 22.324219 24.691406 C 22.769531 24.691406 23.132812 24.332031 23.132812 23.882812 L 23.132812 21.871094 C 23.132812 21.425781 22.769531 21.0625 22.324219 21.0625 Z M 22.324219 21.0625 " fill-opacity="1" fill-rule="nonzero"/><g clip-path="url(#0f3d35aa53)"><path fill="#38b6ff" d="M 8.515625 6.847656 C 9.304688 6.847656 9.949219 6.207031 9.949219 5.414062 L 9.949219 1.902344 C 9.949219 1.113281 9.304688 0.46875 8.515625 0.46875 C 7.722656 0.46875 7.082031 1.113281 7.082031 1.902344 L 7.082031 5.414062 C 7.082031 6.207031 7.722656 6.847656 8.515625 6.847656 Z M 8.515625 6.847656 " fill-opacity="1" fill-rule="nonzero"/></g><g clip-path="url(#4a17f55f89)"><path fill="#38b6ff" d="M 24.777344 4.1875 L 23.824219 4.1875 L 23.824219 5.414062 C 23.824219 6.648438 22.820312 7.652344 21.585938 7.652344 C 20.351562 7.652344 19.351562 6.648438 19.351562 5.414062 L 19.351562 4.1875 L 10.75 4.1875 L 10.75 5.414062 C 10.75 6.648438 9.75 7.652344 8.515625 7.652344 C 7.28125 7.652344 6.277344 6.648438 6.277344 5.414062 L 6.277344 4.1875 L 5.324219 4.1875 C 2.984375 4.1875 1.085938 6.089844 1.085938 8.425781 L 1.085938 25.195312 C 1.085938 27.535156 2.984375 29.4375 5.324219 29.4375 L 24.777344 29.4375 C 27.113281 29.4375 29.015625 27.535156 29.015625 25.195312 L 29.015625 8.425781 C 29.019531 6.089844 27.113281 4.1875 24.777344 4.1875 Z M 26.566406 25.195312 C 26.566406 26.183594 25.765625 26.984375 24.777344 26.984375 L 5.324219 26.984375 C 4.335938 26.984375 3.535156 26.183594 3.535156 25.195312 L 3.535156 13.804688 C 3.535156 13.339844 3.910156 12.964844 4.375 12.964844 L 25.730469 12.964844 C 26.191406 12.964844 26.570312 13.339844 26.570312 13.804688 L 26.570312 25.195312 Z M 26.566406 25.195312 " fill-opacity="1" fill-rule="nonzero"/></g><g clip-path="url(#0af62fc5a0)"><path fill="#38b6ff" d="M 21.585938 6.847656 C 22.378906 6.847656 23.019531 6.207031 23.019531 5.414062 L 23.019531 1.902344 C 23.019531 1.113281 22.378906 0.46875 21.585938 0.46875 C 20.796875 0.46875 20.152344 1.113281 20.152344 1.902344 L 20.152344 5.414062 C 20.152344 6.207031 20.796875 6.847656 21.585938 6.847656 Z M 21.585938 6.847656 " fill-opacity="1" fill-rule="nonzero"/></g></svg>