<svg xmlns="http://www.w3.org/2000/svg" xmlns:xlink="http://www.w3.org/1999/xlink" width="40" zoomAndPan="magnify" viewBox="0 0 30 37.92" height="40" preserveAspectRatio="xMidYMid meet" version="1.0"><defs><clipPath id="e166bb2bed"><path d="M 0.03125 0 L 29.96875 0 L 29.96875 29.9375 L 0.03125 29.9375 Z M 0.03125 0 " clip-rule="nonzero"/></clipPath><clipPath id="14c91a9ad2"><path d="M 18 0 L 29.96875 0 L 29.96875 16 L 18 16 Z M 18 0 " clip-rule="nonzero"/></clipPath><clipPath id="d0b425b911"><path d="M 0.03125 11 L 14 11 L 14 29.9375 L 0.03125 29.9375 Z M 0.03125 11 " clip-rule="nonzero"/></clipPath></defs><g clip-path="url(#e166bb2bed)"><path fill="#ffffff" d="M 0.03125 0 L 29.96875 0 L 29.96875 29.9375 L 0.03125 29.9375 Z M 0.03125 0 " fill-opacity="1" fill-rule="nonzero"/><path fill="#ffffff" d="M 0.03125 0 L 29.96875 0 L 29.96875 29.9375 L 0.03125 29.9375 Z M 0.03125 0 " fill-opacity="1" fill-rule="nonzero"/></g><path fill="#38b6ff" d="M 12.1875 26.4375 C 11.976562 26.578125 11.910156 26.855469 12.023438 27.089844 C 12.164062 27.296875 12.441406 27.367188 12.675781 27.253906 C 13.164062 26.949219 13.628906 26.554688 14.117188 26.066406 L 14.1875 25.996094 C 14.371094 25.8125 14.347656 25.507812 14.164062 25.347656 C 13.976562 25.160156 13.675781 25.183594 13.511719 25.371094 L 13.441406 25.4375 C 13.023438 25.835938 12.605469 26.160156 12.1875 26.4375 Z M 12.1875 26.4375 " fill-opacity="1" fill-rule="nonzero"/><path fill="#38b6ff" d="M 19.042969 18.464844 C 19.601562 18.140625 20.113281 18 20.648438 17.839844 L 20.671875 17.839844 C 20.925781 17.769531 21.066406 17.511719 20.972656 17.257812 C 20.902344 17.003906 20.648438 16.886719 20.390625 16.957031 L 20.367188 16.957031 C 19.8125 17.117188 19.230469 17.304688 18.578125 17.675781 C 18.347656 17.816406 18.277344 18.09375 18.417969 18.304688 C 18.53125 18.511719 18.835938 18.582031 19.042969 18.464844 Z M 19.042969 18.464844 " fill-opacity="1" fill-rule="nonzero"/><path fill="#38b6ff" d="M 22.484375 17.070312 C 22.738281 16.933594 22.996094 16.746094 23.226562 16.5625 C 23.089844 16.445312 22.972656 16.28125 22.878906 16.097656 L 22.738281 15.769531 C 22.507812 15.957031 22.25 16.140625 22.019531 16.28125 C 21.785156 16.421875 21.71875 16.699219 21.855469 16.910156 C 21.972656 17.117188 22.273438 17.210938 22.484375 17.070312 Z M 22.484375 17.070312 " fill-opacity="1" fill-rule="nonzero"/><path fill="#38b6ff" d="M 15.371094 24.371094 C 15.699219 23.742188 15.859375 23.160156 16.023438 22.605469 L 16.046875 22.535156 C 16.117188 22.277344 15.976562 22.023438 15.71875 21.953125 C 15.464844 21.882812 15.210938 22.023438 15.140625 22.277344 L 15.117188 22.347656 C 14.976562 22.882812 14.835938 23.371094 14.558594 23.929688 C 14.441406 24.160156 14.535156 24.441406 14.746094 24.554688 C 14.953125 24.671875 15.253906 24.601562 15.371094 24.371094 Z M 15.371094 24.371094 " fill-opacity="1" fill-rule="nonzero"/><path fill="#38b6ff" d="M 17.046875 18.886719 L 17 18.929688 C 16.511719 19.441406 16.117188 19.929688 15.835938 20.441406 C 15.71875 20.675781 15.789062 20.953125 16.023438 21.070312 C 16.230469 21.1875 16.535156 21.117188 16.648438 20.882812 C 16.90625 20.441406 17.230469 20 17.671875 19.558594 L 17.71875 19.511719 C 17.90625 19.328125 17.90625 19.023438 17.71875 18.863281 C 17.511719 18.699219 17.207031 18.699219 17.046875 18.886719 Z M 17.046875 18.886719 " fill-opacity="1" fill-rule="nonzero"/><path fill="#38b6ff" d="M 10.582031 27.113281 L 10.445312 27.160156 C 10.117188 27.253906 9.816406 27.34375 9.46875 27.484375 C 9.234375 27.878906 9.027344 28.273438 8.839844 28.671875 C 8.886719 28.691406 8.933594 28.691406 8.980469 28.691406 C 9.050781 28.691406 9.144531 28.671875 9.210938 28.648438 C 9.722656 28.367188 10.210938 28.207031 10.722656 28.066406 L 10.863281 28.019531 C 11.117188 27.949219 11.234375 27.695312 11.164062 27.4375 C 11.09375 27.160156 10.839844 27.019531 10.582031 27.113281 Z M 10.582031 27.113281 " fill-opacity="1" fill-rule="nonzero"/><g clip-path="url(#14c91a9ad2)"><path fill="#38b6ff" d="M 28.085938 1.660156 C 26.855469 0.546875 25.179688 0.0117188 23.507812 0.199219 C 20.855469 0.476562 18.695312 2.566406 18.394531 5.171875 C 18.207031 6.796875 18.71875 8.449219 19.835938 9.65625 C 21.390625 11.355469 22.53125 13.050781 23.34375 14.816406 L 23.738281 15.675781 C 23.808594 15.839844 23.972656 15.957031 24.15625 15.957031 C 24.34375 15.957031 24.507812 15.839844 24.574219 15.675781 C 25.503906 13.632812 26.832031 11.609375 28.621094 9.496094 C 29.480469 8.472656 29.96875 7.195312 29.96875 5.867188 C 29.96875 4.289062 29.269531 2.753906 28.085938 1.660156 Z M 24.15625 7.84375 C 22.996094 7.84375 22.066406 6.914062 22.066406 5.753906 C 22.066406 4.589844 22.996094 3.660156 24.15625 3.660156 C 25.320312 3.660156 26.25 4.589844 26.25 5.753906 C 26.25 6.914062 25.320312 7.84375 24.15625 7.84375 Z M 24.15625 7.84375 " fill-opacity="1" fill-rule="nonzero"/></g><g clip-path="url(#d0b425b911)"><path fill="#38b6ff" d="M 11.46875 13.050781 C 10.050781 11.773438 8.121094 11.167969 6.191406 11.378906 C 3.121094 11.703125 0.613281 14.167969 0.265625 17.210938 C 0.03125 19.117188 0.636719 21.046875 1.9375 22.464844 C 3.773438 24.488281 5.121094 26.507812 6.074219 28.601562 L 6.539062 29.644531 C 6.609375 29.808594 6.773438 29.925781 6.957031 29.925781 C 7.144531 29.925781 7.304688 29.808594 7.375 29.644531 L 7.703125 28.925781 C 8.703125 26.695312 10.117188 24.554688 12.023438 22.417969 C 13.09375 21.210938 13.699219 19.628906 13.699219 18.023438 C 13.699219 16.117188 12.886719 14.328125 11.46875 13.050781 Z M 6.957031 20.628906 C 5.425781 20.628906 4.167969 19.371094 4.167969 17.839844 C 4.167969 16.304688 5.425781 15.050781 6.957031 15.050781 C 8.492188 15.050781 9.746094 16.304688 9.746094 17.839844 C 9.746094 19.371094 8.492188 20.628906 6.957031 20.628906 Z M 6.957031 20.628906 " fill-opacity="1" fill-rule="nonzero"/></g></svg>