<svg xmlns="http://www.w3.org/2000/svg" xmlns:xlink="http://www.w3.org/1999/xlink" width="40" zoomAndPan="magnify" viewBox="0 0 30 37.92" height="40" preserveAspectRatio="xMidYMid meet" version="1.0"><defs><clipPath id="f4f06dbe83"><path d="M 0.03125 0 L 29.96875 0 L 29.96875 29.9375 L 0.03125 29.9375 Z M 0.03125 0 " clip-rule="nonzero"/></clipPath><clipPath id="703064f763"><path d="M 1.644531 0 L 28.585938 0 L 28.585938 29.1875 L 1.644531 29.1875 Z M 1.644531 0 " clip-rule="nonzero"/></clipPath></defs><g clip-path="url(#f4f06dbe83)"><path fill="#ffffff" d="M 0.03125 0 L 29.96875 0 L 29.96875 29.9375 L 0.03125 29.9375 Z M 0.03125 0 " fill-opacity="1" fill-rule="nonzero"/><path fill="#ffffff" d="M 0.03125 0 L 29.96875 0 L 29.96875 29.9375 L 0.03125 29.9375 Z M 0.03125 0 " fill-opacity="1" fill-rule="nonzero"/></g><g clip-path="url(#703064f763)"><path fill="#38b6ff" d="M 15 0.00390625 C 10.574219 0.00390625 6.984375 3.589844 6.984375 8.015625 C 6.984375 12.453125 11.800781 18.839844 13.964844 21.488281 C 14.5 22.144531 15.492188 22.144531 16.027344 21.488281 C 18.195312 18.839844 23.011719 12.453125 23.011719 8.015625 C 23.011719 3.589844 19.425781 0.00390625 15 0.00390625 Z M 15 5.15625 C 16.578125 5.15625 17.859375 6.433594 17.859375 8.015625 C 17.859375 9.597656 16.578125 10.878906 15 10.878906 C 13.417969 10.878906 12.136719 9.597656 12.136719 8.015625 C 12.136719 6.433594 13.417969 5.15625 15 5.15625 Z M 8.3125 19.453125 C 8.210938 19.453125 8.105469 19.46875 8 19.492188 C 4.1875 20.433594 1.644531 22.117188 1.644531 24.042969 C 1.644531 26.992188 7.621094 29.382812 15 29.382812 C 22.375 29.382812 28.351562 26.992188 28.351562 24.042969 C 28.351562 22.117188 25.808594 20.4375 21.996094 19.496094 C 21.15625 19.289062 20.339844 19.9375 20.339844 20.800781 C 20.339844 21.410156 20.742188 21.949219 21.332031 22.097656 C 23.742188 22.695312 25.207031 23.523438 25.613281 24.039062 C 24.925781 24.914062 21.265625 26.710938 15 26.710938 C 8.730469 26.710938 5.070312 24.914062 4.382812 24.039062 C 4.789062 23.523438 6.253906 22.695312 8.664062 22.097656 C 9.253906 21.953125 9.65625 21.410156 9.65625 20.800781 C 9.65625 20.042969 9.03125 19.453125 8.3125 19.453125 Z M 8.3125 19.453125 " fill-opacity="1" fill-rule="nonzero"/></g></svg>