<?xml version="1.0" encoding="UTF-8"?>
<svg width="24px" height="24px" viewBox="0 0 24 24" version="1.1" xmlns="http://www.w3.org/2000/svg" xmlns:xlink="http://www.w3.org/1999/xlink">
    <title>Ícone de Atividade</title>
    <g id="Activity-Icon" stroke="none" stroke-width="1" fill="none" fill-rule="evenodd">
        <path d="M13.49,5.48 C14.59,5.48 15.49,4.58 15.49,3.48 C15.49,2.38 14.59,1.48 13.49,1.48 C12.39,1.48 11.49,2.38 11.49,3.48 C11.49,4.58 12.39,5.48 13.49,5.48 Z M9.89,19.38 L10.89,14.98 L12.99,16.98 L12.99,22.98 L14.99,22.98 L14.99,15.48 L12.89,13.48 L13.49,10.48 C14.79,12.08 16.79,12.98 18.99,12.98 L18.99,10.98 C17.09,10.98 15.49,10.08 14.69,8.68 L13.69,6.98 C13.29,6.38 12.69,5.98 11.99,5.98 C11.69,5.98 11.49,6.08 11.19,6.08 L5.99,8.28 L5.99,12.98 L7.99,12.98 L7.99,9.58 L11.49,8.08 L10.59,12.48 L6.09,16.98 L7.49,18.38 L9.89,19.38 Z" id="Shape" fill="#007BFF" fill-rule="nonzero"></path>
    </g>
</svg>
