<svg fill="#000000" version="1.1" id="Capa_1" xmlns="http://www.w3.org/2000/svg" xmlns:xlink="http://www.w3.org/1999/xlink" 
	 viewBox="0 0 490 490" xml:space="preserve">
<g>
	<path d="M477.9,219.9c-5.9-14.7-16.8-27.3-30.9-34.7l-53.6-27.9c-18.4-9.6-31.3-28.3-33.1-49.2l-6.3-72.8
		c-1.4-16.3-9.6-31.1-22.2-41.6C319.2,5.9,302.8,0.1,285.4,0h-80.8c-17.5,0.1-33.8,5.9-46.5,13.7c-12.6,10.5-20.8,25.3-22.2,41.6
		l-6.3,72.8c-1.8,20.9-14.7,39.6-33.1,49.2l-53.6,27.9c-14.1,7.3-25,20-30.9,34.7c-8.7,21.8,0.5,46.9,22.2,55.6l49.2,19.8
		c26.1,10.5,42.9,37.1,42.9,65.4v109.3c0,11,9,20,20,20h100c11,0,20-9,20-20V360.6c0-28.3,16.8-54.9,42.9-65.4l49.2-19.8
		C477.4,266.7,486.6,241.7,477.9,219.9z M245,70c13.8,0,25,11.2,25,25s-11.2,25-25,25s-25-11.2-25-25S231.2,70,245,70z
		 M101.4,312.3c-13.8,0-25-11.2-25-25s11.2-25,25-25s25,11.2,25,25S115.2,312.3,101.4,312.3z M388.6,312.3c-13.8,0-25-11.2-25-25
		s11.2-25,25-25s25,11.2,25,25S402.4,312.3,388.6,312.3z"/>
</g>
</svg>
