<svg width="24px" height="24px" viewBox="0 0 24 24" version="1.1" xmlns="http://www.w3.org/2000/svg" xmlns:xlink="http://www.w3.org/1999/xlink">
    <title>Slice</title>
    <g id="Page-1" stroke="none" stroke-width="1" fill="none" fill-rule="evenodd">
        <g id="Icon" transform="translate(-256.000000, -100.000000)">
            <g id="running" transform="translate(256.000000, 100.000000)">
                <path d="M18.364,10.364 C18.364,9.259 17.479,8.364 16.364,8.364 C15.259,8.364 14.364,9.259 14.364,10.364 C14.364,11.479 15.259,12.364 16.364,12.364 C17.479,12.364 18.364,11.479 18.364,10.364 M19.864,18.364 L19.864,22.364 L17.864,22.364 L17.864,17.364 L14.864,14.364 L12.919,15.71C12.565,15.933 12.138,15.962 11.762,15.788 L8.066,14.084 L5.048,17.864 L3.864,17.864 L3.864,14.864 L3.864,13.864 L3.864,11.864 L5.864,11.864 L5.864,12.864 L7.364,12.864 L9.864,9.864 L8.864,7.864 L6.864,7.864 L6.864,5.864 L10.864,5.864 L12.487,8.864 L15.611,9.905 C16.235,10.119 16.864,10.678 16.864,11.364 L16.864,11.864 L19.864,18.364 Z" id="Shape" fill="#00AEEF" fill-rule="nonzero"></path>
                <polygon id="Path" points="0 0 24 0 24 24 0 24"></polygon>
            </g>
        </g>
    </g>
</svg>
