<svg width="72px" height="24px" viewBox="0 0 72 24" version="1.1" xmlns="http://www.w3.org/2000/svg" xmlns:xlink="http://www.w3.org/1999/xlink">
    <title>Triathlon Composite Icon</title>
    <g id="triathlon_composite" fill="#FF8C00">
        <!-- Swimming Icon (scaled and positioned) -->
        <g id="swimming" transform="translate(0, 0) scale(1)">
            <path d="M6.1018 11.0249C5.49082 10.9003 5.01919 10.2981 5.00103 9.64001C4.97938 8.86609 5.50529 8.16813 6.25927 7.95907C6.40783 7.91314 6.55987 7.88368 6.71371 7.87123C7.30188 7.82431 7.82092 8.28085 7.82092 8.87302C7.82092 9.02686 7.79146 9.1789 7.73553 9.32049C7.52647 9.83953 7.01201 10.1995 6.42205 10.1995C6.31527 10.1995 6.20941 10.1846 6.1018 10.1549V11.0249ZM17.0679 10.1995C16.4779 10.1995 15.9635 9.83953 15.7544 9.32049C15.6985 9.1789 15.669 9.02686 15.669 8.87302C15.669 8.28085 16.1881 7.82431 16.7763 7.87123C16.9301 7.88368 17.0822 7.91314 17.2307 7.95907C17.9847 8.16813 18.5106 8.86609 18.489 9.64001C18.4708 10.2981 17.9992 10.9003 17.3882 11.0249V10.1549C17.2806 10.1846 17.1747 10.1995 17.0679 10.1995ZM19 13.5C19 13.2239 18.7761 13 18.5 13H5.5C5.22386 13 5 13.2239 5 13.5C5 13.7761 5.22386 14 5.5 14H18.5C18.7761 14 19 13.7761 19 13.5Z" />
            <path fill-rule="evenodd" clip-rule="evenodd" d="M16.5 6.00002C16.5 5.86195 16.4739 5.72651 16.4248 5.598C16.2206 5.04919 15.6777 4.69397 15.071 4.69397C14.2794 4.69397 13.6255 5.31451 13.5806 6.10182L13.004 11.0249C12.8812 12.0494 12.0468 12.806 11.0024 12.806C9.95796 12.806 9.12359 12.0494 9.00083 11.0249L8.42424 6.10182C8.37937 5.31451 7.72542 4.69397 6.93382 4.69397C6.32717 4.69397 5.78423 5.04919 5.58004 5.598C5.52614 5.72651 5.50002 5.86195 5.50002 6.00002C5.50002 6.70531 6.02119 7.27459 6.71373 7.37125L7.82094 7.37304L8.39753 12.2962C8.62211 14.2429 10.1689 15.7024 12.0024 15.7024C13.8359 15.7024 15.3827 14.2429 15.6073 12.2962L16.1839 7.37304L17.2911 7.37125C17.9836 7.27459 18.5048 6.70531 18.5048 6.00002C18.5048 5.86195 18.4787 5.72651 18.4296 5.598C18.2254 5.04919 17.6824 4.69397 17.0758 4.69397C16.8166 4.69397 16.5781 4.75629 16.3789 4.86543C16.4424 4.90725 16.5 4.9522 16.5 5.00002V6.00002ZM12.0024 1C17.0024 1 20.0024 3 20.0024 3C20.0024 3 22.0024 7.5 22.0024 12C22.0024 16.5 20.0024 23 20.0024 23C20.0024 23 15.0024 23 12.0024 23C9.00243 23 4.00243 23 4.00243 23C4.00243 23 2.00243 16.5 2.00243 12C2.00243 7.5 4.00243 3 4.00243 3C4.00243 3 7.00243 1 12.0024 1Z" />
        </g>
        <!-- Cycling Icon (scaled and positioned) -->
        <g id="cycling" transform="translate(24, 0) scale(0.0489795918)">
            <path d="M477.9,219.9c-5.9-14.7-16.8-27.3-30.9-34.7l-53.6-27.9c-18.4-9.6-31.3-28.3-33.1-49.2l-6.3-72.8
		c-1.4-16.3-9.6-31.1-22.2-41.6C319.2,5.9,302.8,0.1,285.4,0h-80.8c-17.5,0.1-33.8,5.9-46.5,13.7c-12.6,10.5-20.8,25.3-22.2,41.6
		l-6.3,72.8c-1.8,20.9-14.7,39.6-33.1,49.2l-53.6,27.9c-14.1,7.3-25,20-30.9,34.7c-8.7,21.8,0.5,46.9,22.2,55.6l49.2,19.8
		c26.1,10.5,42.9,37.1,42.9,65.4v109.3c0,11,9,20,20,20h100c11,0,20-9,20-20V360.6c0-28.3,16.8-54.9,42.9-65.4l49.2-19.8
		C477.4,266.7,486.6,241.7,477.9,219.9z M245,70c13.8,0,25,11.2,25,25s-11.2,25-25,25s-25-11.2-25-25S231.2,70,245,70z
		 M101.4,312.3c-13.8,0-25-11.2-25-25s11.2-25,25-25s25,11.2,25,25S115.2,312.3,101.4,312.3z M388.6,312.3c-13.8,0-25-11.2-25-25
		s11.2-25,25-25s25,11.2,25,25S402.4,312.3,388.6,312.3z"/>
        </g>
        <!-- Running Icon (scaled and positioned) -->
        <g id="running" transform="translate(48, 0) scale(1)">
            <path d="M18.364,10.364 C18.364,9.259 17.479,8.364 16.364,8.364 C15.259,8.364 14.364,9.259 14.364,10.364 C14.364,11.479 15.259,12.364 16.364,12.364 C17.479,12.364 18.364,11.479 18.364,10.364 M19.864,18.364 L19.864,22.364 L17.864,22.364 L17.864,17.364 L14.864,14.364 L12.919,15.71C12.565,15.933 12.138,15.962 11.762,15.788 L8.066,14.084 L5.048,17.864 L3.864,17.864 L3.864,14.864 L3.864,13.864 L3.864,11.864 L5.864,11.864 L5.864,12.864 L7.364,12.864 L9.864,9.864 L8.864,7.864 L6.864,7.864 L6.864,5.864 L10.864,5.864 L12.487,8.864 L15.611,9.905 C16.235,10.119 16.864,10.678 16.864,11.364 L16.864,11.864 L19.864,18.364 Z" />
        </g>
    </g>
</svg>

