<?xml version="1.0" encoding="UTF-8"?>
<svg width="24px" height="24px" viewBox="0 0 24 24" version="1.1" xmlns="http://www.w3.org/2000/svg" xmlns:xlink="http://www.w3.org/1999/xlink">
    <title>Ícone de Ciclismo</title>
    <g id="Ciclismo-Icon" stroke="none" stroke-width="1" fill="none" fill-rule="evenodd">
        <path d="M15.5,5.5 C16.6,5.5 17.5,4.6 17.5,3.5 C17.5,2.4 16.6,1.5 15.5,1.5 C14.4,1.5 13.5,2.4 13.5,3.5 C13.5,4.6 14.4,5.5 15.5,5.5 Z M5,12 C2.2,12 0,14.2 0,17 C0,19.8 2.2,22 5,22 C7.8,22 10,19.8 10,17 C10,14.2 7.8,12 5,12 Z M5,20.5 C3.1,20.5 1.5,18.9 1.5,17 C1.5,15.1 3.1,13.5 5,13.5 C6.9,13.5 8.5,15.1 8.5,17 C8.5,18.9 6.9,20.5 5,20.5 Z M17.5,9.5 L13.5,7 L10.5,9 L13,11.5 L10,17 L11.5,18 L15,12 L17.5,14.5 L17.5,9.5 Z M19,12 C16.2,12 14,14.2 14,17 C14,19.8 16.2,22 19,22 C21.8,22 24,19.8 24,17 C24,14.2 21.8,12 19,12 Z M19,20.5 C17.1,20.5 15.5,18.9 15.5,17 C15.5,15.1 17.1,13.5 19,13.5 C20.9,13.5 22.5,15.1 22.5,17 C22.5,18.9 20.9,20.5 19,20.5 Z" id="Shape" fill="#007BFF" fill-rule="nonzero"></path>
    </g>
</svg>
